<?xml version="1.0" encoding="UTF-8"?>
<!DOCTYPE svg PUBLIC "-//W3C//DTD SVG 1.1//EN" "http://www.w3.org/Graphics/SVG/1.1/DTD/svg11.dtd">
<!-- Creator: CorelDRAW -->
<svg xmlns="http://www.w3.org/2000/svg" xml:space="preserve" width="50.3234mm" height="50.114mm" version="1.1" style="shape-rendering:geometricPrecision; text-rendering:geometricPrecision; image-rendering:optimizeQuality; fill-rule:evenodd; clip-rule:evenodd"
viewBox="0 0 5742.63 5718.74"
 xmlns:xlink="http://www.w3.org/1999/xlink"
 xmlns:xodm="http://www.corel.com/coreldraw/odm/2003">
 <defs>
  <style type="text/css">
   <![CDATA[
    .str0 {stroke:#FEFEFE;stroke-width:171.17;stroke-linecap:round;stroke-linejoin:round;stroke-miterlimit:22.9256}
    .fil3 {fill:#004A52}
    .fil2 {fill:#007C86}
    .fil4 {fill:#26B4A6}
    .fil0 {fill:#DDBA5E}
    .fil1 {fill:white}
   ]]>
  </style>
 </defs>
 <g id="Camada_x0020_1">
  <metadata id="CorelCorpID_0Corel-Layer"/>
  <g id="_1740631844560">
   <path class="fil0 str0" d="M2670.89 686c-265.31,48.84 -425.82,60.24 -689.47,178.45 -109.84,49.25 -190.85,88.68 -285.69,149.38 -127.85,81.82 -162.56,126.76 -255.69,193.34 -85.96,-23.67 -299.17,-221.49 -364.98,-156.79 -47.72,46.91 12.4,109.32 58.06,198.75 42.05,82.37 99.41,145.54 80.53,181.88 -11.61,22.34 -41.32,52.89 -58.7,77.45 -177.38,250.7 -237.59,294.16 -359.91,645.68 -90.86,261.09 -60.37,245.28 -109.57,460.35 -70.96,39.83 -508.73,127.68 -598.71,178.35 -11.73,125 56.14,93.35 273.01,158.33 103.64,31.06 228.73,56.1 330.26,94.74 18.67,236.46 100.84,519.5 189.32,699.58 177.13,360.58 163.21,287.14 345.24,542.16 -38.63,52.71 -65.43,109.06 -100.96,165.3 -30.65,48.5 -102.08,128.53 -54.62,184.73 57.76,31.86 130.73,-30.75 182.57,-56.3 54.39,-26.81 118.02,-74.75 169.14,-95.27 112.98,59.15 197.26,191.54 548.07,352.66 105.9,48.64 207.23,88.06 325.71,120.95 132.5,36.78 242.71,50.15 380.81,71.65 23.42,99.18 117.71,588.47 185,600.98 80.47,14.96 110.55,-185.86 134.62,-276.34 28.83,-108.37 61.63,-220.99 85.64,-327.67 260.52,-27.88 488.28,-86.56 698.02,-190.49 55.78,-27.65 89.73,-45.43 146.11,-76.16 234.62,-127.88 262.45,-190.48 394.53,-275.88 90.71,31.53 329.43,225.66 374.19,127.37 12.95,-28.44 -128.06,-253.28 -165.88,-327.21 56.85,-71.6 129.5,-157.65 189.05,-250.31 190.88,-296.94 293.71,-627.44 336.28,-991.96 101.71,-26.92 195.11,-52.1 299.09,-80.42 63.58,-17.31 261.29,-60.74 300.41,-84.21 17.35,-101.56 -13.48,-94.46 -95.5,-121.9 -55.29,-18.49 -106.93,-32.47 -166.26,-47.08 -105.37,-25.95 -237.03,-57.11 -340.38,-92.89 -40.51,-274.81 -82.76,-444.75 -185.53,-673.49 -48.83,-108.65 -93.55,-176.06 -156.74,-268.31 -56.9,-83.08 -118.98,-172.91 -183.45,-248.26 54.49,-120.09 202.46,-321.29 149.07,-374.73 -45.42,-48.97 -149.48,30.29 -191.05,52.89 -50.74,27.59 -139.16,74.29 -172.97,103.15 -27.23,-14.87 -82.98,-69.27 -116.09,-91.92 -362.56,-248.06 -630.23,-381.62 -1108.19,-428.83l-132.78 -463.32c-13.71,-43.52 -21.26,-126.95 -73.64,-137.49 -89.45,-17.98 -99.39,141.7 -130.78,272.28 -14.2,59.08 -57.37,294.6 -77.21,326.82z"/>
   <path class="fil1" d="M2717.86 923.68c-448.04,53.37 -716.37,149.97 -1049.69,401.98 -285.38,215.76 -491.64,507.44 -623.51,844.11 -208.1,531.27 -158.27,1142.99 126.2,1623.26 242.87,410.04 551.42,704.82 1015.38,876.39 497.17,183.85 1125.63,171.23 1591.97,-95.1 431.81,-246.6 736.97,-563.11 916.11,-1032.83 183.87,-482.11 168.59,-1149.13 -95.11,-1594.2 -249.44,-421.01 -559.64,-730.27 -1039.74,-909.15 -238.13,-88.72 -565.11,-147.39 -841.6,-114.45z"/>
   <path class="fil2" d="M4573.59 3542.22c-39.67,6 -118.51,-35.8 -171.86,-52.17 -65.09,-19.99 -136.4,-33.1 -200.32,-40.48 -130.26,-15.03 -304.57,-6.93 -431.74,17.11 -64.31,12.16 -131.85,25.57 -197.59,44.28l-471.21 175.7c-51.39,20.67 13.91,8.25 -48.69,15.8l-275.78 102.69 -65.78 23.8c-343.6,75.51 -694.28,98.94 -1019.6,-63.62 -74.39,-37.18 -137.37,-76.03 -199.88,-119.71l-169.94 -149.35c-111.04,-118.02 -194.34,-219.62 -248.24,-388.95 -3.75,-18.41 6.07,-0.74 -9.02,-21.21 -23.15,-31.43 -4.72,-8.44 -25.71,-26.78 53.7,500.19 376.13,1008.78 723.22,1253.14 81.96,57.7 143.51,101.17 241.3,154.91 170,93.44 376.52,162.07 594.61,198.79 639.86,107.75 1315.33,-178.93 1680.41,-625.12 70.45,-86.1 263.43,-355.39 295.83,-498.83z"/>
   <path class="fil3" d="M2723.24 3473.88l53.15 331.27 275.78 -102.69c-26.16,-107.59 -78.09,-216.72 -90.9,-329.28 -109.24,-274.47 -159.92,-1200.02 -41.51,-1353.43 132.73,3.95 319.05,274.15 400.92,302.04 19.63,-85.33 -0.65,-140.08 -23.77,-208.21 82.64,32.82 157.12,151.82 203.3,227.94l37.06 69.15c13.36,21.68 6.77,12.75 18.69,23.98 21.46,-42.98 21.44,-111.38 20.87,-166.28 31.19,29.26 95.81,154.79 126.15,208.04l113.84 221.68c54.35,-85.51 -18.84,-452.54 -147.42,-602.57 -141.03,-164.55 -271.81,-212.74 -570.22,-217.64 153.02,-82.7 348.52,-73.54 537.37,-78.6 -15.98,-38.4 2.24,-20.93 -79.89,-64.97 -27.9,-14.97 -62.8,-28.96 -87.56,-43.91 82,-1.47 141.59,32.34 209.38,58.89 31.77,12.44 62.93,25.78 93.92,40.19 36.27,16.87 59.59,40.94 91.96,51.99l-36.7 -124.16c46.47,6.11 309.63,185.97 352.81,189.92 -31.77,-88.55 -159.71,-210.05 -219.31,-259.11 -82.29,-67.74 -204.12,-129.78 -345.03,-148.68 -198.7,-26.65 -406.73,44.65 -548.48,162.96 -54.96,45.86 -76.48,88.58 -118.59,133.72 43.53,-219.13 230.87,-339.11 291.52,-412.15 -57.01,7.54 -105.23,30.7 -148.82,54.25 27.72,-49.87 94.08,-105.84 153.24,-139.31 31.35,-17.74 60.73,-34.35 94.18,-50.59 32.87,-15.98 74.37,-34.71 97.29,-65.87 -205.17,5.81 -276.6,22.29 -400.91,128.55 -112.65,96.3 -126.75,182.73 -169.17,363.06 -58.35,-167.54 -162.23,-287.84 -320.35,-349.96 -173.17,-68.02 -463.44,-35.07 -559.52,57.82 49.05,10.66 28.28,-11.62 153.43,31.02 138.4,47.15 370.83,106.06 439.02,218.69 -64.84,-29.98 -89.35,-41.12 -173.42,-43.71 23.72,36.65 56.52,40.25 100.43,58.13 94.2,38.33 214.87,124.57 263.33,202.38 -134.5,-88.29 -178.68,-111.76 -368.68,-136.04 -444.07,-56.73 -810.02,264.75 -867.21,675.25 26.28,-14.34 5.98,-0.34 26.53,-19.98 31.42,-30.05 214.75,-267.39 285.88,-301.03l-0.92 121.77 213.65 -199.76 -21.13 103.55c77.35,-32.97 124.44,-91.57 303.5,-177.35 -86.15,172.04 102.16,18.69 291.65,47.44 -111.16,22.2 -288.47,163.83 -359.63,277.7 -82.68,132.28 -134.53,354.66 -40.64,511.16 1.46,-2.15 2.91,-8.4 3.38,-7.02 0,0.02 37.08,-125.47 98.97,-259.69 26.55,-57.57 97.29,-202.01 134.26,-233.82l3.45 133.67c51.92,-29.61 131.93,-190.53 318.7,-293.19 -65.44,183.22 -87.73,447.65 -102.35,658.43 -17.74,255.9 14.46,477.18 34.53,724.33z"/>
   <path class="fil4" d="M2961.27 3373.18c12.82,112.56 64.75,221.69 90.9,329.28 62.6,-7.55 -2.69,4.86 48.69,-15.8l471.21 -175.7c65.74,-18.7 133.27,-32.11 197.59,-44.28 127.17,-24.03 301.48,-32.13 431.74,-17.11 63.92,7.37 135.23,20.48 200.32,40.48 53.35,16.38 132.19,58.18 171.86,52.17 62.63,-80.54 148.93,-523.24 132.27,-657.21 -110.73,-59.07 -394.88,-42.26 -522.49,-21.45 -547.59,89.28 -901.7,390.76 -1222.1,509.62z"/>
   <path class="fil4" d="M2776.4 3805.15l-53.15 -331.27c-68.74,12.08 -139.61,40.8 -212.02,55.88 -78.85,16.42 -157.08,28.27 -242.36,35.82 -312,27.63 -624.96,-60.74 -883.61,-210.75 -186.59,-108.2 -251.61,-217.48 -312.3,-247.5 53.91,169.32 137.2,270.93 248.24,388.95l169.94 149.35c62.51,43.67 125.49,82.53 199.88,119.71 325.32,162.56 676,139.13 1019.6,63.62l65.78 -23.8z"/>
  </g>
 </g>
</svg>
